<?xml version="1.0" standalone="no"?>
<!DOCTYPE svg PUBLIC "-//W3C//DTD SVG 20010904//EN"
 "http://www.w3.org/TR/2001/REC-SVG-20010904/DTD/svg10.dtd">
<svg version="1.0" xmlns="http://www.w3.org/2000/svg"
 width="288.000000pt" height="288.000000pt" viewBox="0 0 288.000000 288.000000"
 preserveAspectRatio="xMidYMid meet">
<metadata>
Created by potrace 1.14, written by Peter Selinger 2001-2017
</metadata>
<g transform="translate(0.000000,288.000000) scale(0.100000,-0.100000)"
fill="#000000" stroke="none">
<path d="M1310 2870 c-533 -52 -989 -390 -1189 -881 -71 -175 -101 -338 -101
-548 0 -540 302 -1026 789 -1266 193 -96 351 -134 581 -142 140 -4 183 -2 285
15 194 34 364 97 516 192 113 71 157 107 269 220 189 189 313 421 377 705 14
63 18 123 18 285 0 178 -3 219 -23 308 -110 491 -467 887 -942 1045 -177 59
-400 85 -580 67z m841 -541 c46 -16 97 -66 110 -109 6 -23 9 -260 7 -680 l-3
-646 -25 -31 c-22 -27 -87 -73 -104 -73 -3 0 -6 277 -6 615 0 533 -2 621 -15
653 -22 51 -52 81 -110 108 l-50 24 -553 0 -553 0 6 23 c13 39 53 84 97 106
42 21 52 21 604 21 392 0 571 -3 595 -11z m-181 -232 c20 -9 48 -36 63 -59
l27 -42 0 -648 c0 -539 -2 -654 -14 -676 -19 -36 -65 -78 -99 -91 -41 -16
-1142 -15 -1188 0 -43 15 -88 55 -105 96 -11 26 -14 151 -14 673 0 689 -2 667
52 717 57 53 48 53 668 50 526 -2 578 -3 610 -20z"/>
<path d="M770 1860 l0 -160 35 0 35 0 0 95 c0 52 3 95 8 95 4 0 19 -20 34 -43
82 -130 98 -147 134 -147 l35 0 -3 158 -3 157 -32 3 -32 3 -3 -101 -3 -102
-69 101 c-64 94 -71 101 -102 101 l-34 0 0 -160z"/>
<path d="M1080 1860 l0 -160 110 0 110 0 0 30 0 30 -75 0 -75 0 0 40 0 40 65
-4 65 -5 0 35 0 34 -65 0 -65 0 0 30 0 31 72 -3 73 -3 39 -127 c40 -128 40
-128 71 -128 30 0 31 2 59 93 16 50 31 96 34 101 2 4 19 -36 36 -90 31 -96 33
-99 64 -102 18 -2 32 -2 32 0 0 2 20 71 45 153 25 83 45 154 45 158 0 5 -17 7
-37 5 -36 -3 -38 -5 -49 -53 -7 -27 -18 -70 -26 -95 l-14 -45 -30 95 c-29 91
-32 95 -61 98 -33 3 -35 -1 -79 -138 -9 -30 -19 -49 -22 -42 -2 7 -14 50 -26
95 l-21 82 -137 3 -138 3 0 -161z"/>
<path d="M1758 2005 c-34 -19 -53 -72 -38 -109 7 -19 27 -35 74 -55 35 -16 67
-34 71 -40 21 -35 -71 -57 -111 -26 -27 20 -30 19 -44 -16 -15 -36 -9 -42 54
-60 54 -15 114 -2 148 31 56 56 22 134 -72 165 -56 19 -67 30 -50 50 15 18 53
19 82 4 18 -10 25 -8 40 11 24 29 23 35 -7 48 -35 16 -114 14 -147 -3z"/>
<path d="M773 1603 c-34 -23 -32 -85 3 -112 26 -21 35 -21 571 -21 l544 0 24
25 c32 31 33 77 3 105 -21 20 -32 20 -572 19 -484 0 -554 -2 -573 -16z"/>
<path d="M772 1354 c-30 -21 -31 -83 -1 -110 20 -18 44 -19 574 -19 530 0 554
1 574 19 27 25 28 79 1 106 -20 20 -33 20 -573 20 -484 0 -555 -2 -575 -16z"/>
<path d="M772 1104 c-16 -11 -22 -25 -22 -54 0 -41 18 -67 53 -75 12 -3 263
-4 558 -3 512 3 538 4 558 22 27 25 28 79 1 106 -20 20 -33 20 -573 20 -484 0
-555 -2 -575 -16z"/>
<path d="M770 850 c-40 -40 -20 -112 33 -125 12 -3 263 -4 558 -3 512 3 538 4
558 22 27 25 28 79 1 106 -20 20 -33 20 -575 20 -542 0 -555 0 -575 -20z"/>
</g>
</svg>
